<svg xmlns="http://www.w3.org/2000/svg" version="1.1" xmlns:xlink="http://www.w3.org/1999/xlink" xmlns:svgjs="http://svgjs.dev/svgjs" width="1440" height="560" preserveAspectRatio="none" viewBox="0 0 1440 560"><g mask="url(&quot;#SvgjsMask1005&quot;)" fill="none"><path d="M 0,193 C 57.6,166.4 172.8,67 288,60 C 403.2,53 460.8,149.4 576,158 C 691.2,166.6 748.8,95.6 864,103 C 979.2,110.4 1036.8,201.8 1152,195 C 1267.2,188.2 1382.4,94.2 1440,69L1440 560L0 560z" fill="rgba(227, 224, 255, 1)"></path><path d="M 0,488 C 96,460.4 288,341.2 480,350 C 672,358.8 768,521.6 960,532 C 1152,542.4 1344,428 1440,402L1440 560L0 560z" fill="rgba(255, 255, 255, 1)"></path></g><defs><mask id="SvgjsMask1005"><rect width="1440" height="560" fill="#ffffff"></rect></mask></defs></svg>