<svg id="visual" viewBox="0 0 900 600" width="900" height="600" xmlns="http://www.w3.org/2000/svg" xmlns:xlink="http://www.w3.org/1999/xlink" version="1.1"><rect x="0" y="0" width="900" height="600" fill="#FF00FF"></rect><defs><linearGradient id="grad1_0" x1="33.3%" y1="0%" x2="100%" y2="100%"><stop offset="20%" stop-color="#ff00ff" stop-opacity="1"></stop><stop offset="80%" stop-color="#ff00ff" stop-opacity="1"></stop></linearGradient></defs><defs><linearGradient id="grad2_0" x1="0%" y1="0%" x2="66.7%" y2="100%"><stop offset="20%" stop-color="#ff00ff" stop-opacity="1"></stop><stop offset="80%" stop-color="#ff00ff" stop-opacity="1"></stop></linearGradient></defs><g transform="translate(900, 0)"><path d="M0 486.7C-41.1 430.8 -82.2 374.8 -149.6 361.2C-217.1 347.7 -310.9 376.5 -344.2 344.2C-377.5 311.9 -350.3 218.3 -364 150.8C-377.7 83.2 -432.2 41.6 -486.7 0L0 0Z" fill="#00FF00"></path></g><g transform="translate(0, 600)"><path d="M0 -486.7C60.8 -475.4 121.6 -464.1 183.7 -443.5C245.7 -422.8 309 -392.8 344.2 -344.2C379.4 -295.6 386.5 -228.5 405.6 -168C424.7 -107.5 455.7 -53.8 486.7 0L0 0Z" fill="#00FF00"></path></g></svg>