<svg xmlns="http://www.w3.org/2000/svg" version="1.1" xmlns:xlink="http://www.w3.org/1999/xlink" xmlns:svgjs="http://svgjs.dev/svgjs" width="1440" height="560" preserveAspectRatio="none" viewBox="0 0 1440 560"><g mask="url(&quot;#SvgjsMask1006&quot;)" fill="none"><path d="M673 492L672 897" stroke-width="6" stroke="url(&quot;#SvgjsLinearGradient1007&quot;)" stroke-linecap="round" class="Down"></path><path d="M416 101L415 -308" stroke-width="10" stroke="url(&quot;#SvgjsLinearGradient1007&quot;)" stroke-linecap="round" class="Down"></path><path d="M1010 314L1009 533" stroke-width="8" stroke="url(&quot;#SvgjsLinearGradient1008&quot;)" stroke-linecap="round" class="Up"></path><path d="M425 236L424 569" stroke-width="8" stroke="url(&quot;#SvgjsLinearGradient1007&quot;)" stroke-linecap="round" class="Down"></path><path d="M1410 365L1409 595" stroke-width="10" stroke="url(&quot;#SvgjsLinearGradient1008&quot;)" stroke-linecap="round" class="Up"></path><path d="M1216 145L1215 358" stroke-width="10" stroke="url(&quot;#SvgjsLinearGradient1007&quot;)" stroke-linecap="round" class="Down"></path><path d="M603 22L602 342" stroke-width="6" stroke="url(&quot;#SvgjsLinearGradient1008&quot;)" stroke-linecap="round" class="Up"></path><path d="M585 222L584 21" stroke-width="8" stroke="url(&quot;#SvgjsLinearGradient1008&quot;)" stroke-linecap="round" class="Up"></path><path d="M985 210L984 380" stroke-width="10" stroke="url(&quot;#SvgjsLinearGradient1008&quot;)" stroke-linecap="round" class="Up"></path><path d="M496 511L495 163" stroke-width="6" stroke="url(&quot;#SvgjsLinearGradient1008&quot;)" stroke-linecap="round" class="Up"></path><path d="M99 354L98 190" stroke-width="8" stroke="url(&quot;#SvgjsLinearGradient1007&quot;)" stroke-linecap="round" class="Down"></path><path d="M349 57L348 434" stroke-width="6" stroke="url(&quot;#SvgjsLinearGradient1008&quot;)" stroke-linecap="round" class="Up"></path><path d="M784 156L783 440" stroke-width="10" stroke="url(&quot;#SvgjsLinearGradient1007&quot;)" stroke-linecap="round" class="Down"></path><path d="M1111 377L1110 81" stroke-width="8" stroke="url(&quot;#SvgjsLinearGradient1007&quot;)" stroke-linecap="round" class="Down"></path><path d="M73 515L72 675" stroke-width="6" stroke="url(&quot;#SvgjsLinearGradient1007&quot;)" stroke-linecap="round" class="Down"></path><path d="M130 399L129 151" stroke-width="8" stroke="url(&quot;#SvgjsLinearGradient1007&quot;)" stroke-linecap="round" class="Down"></path><path d="M856 84L855 -122" stroke-width="6" stroke="url(&quot;#SvgjsLinearGradient1007&quot;)" stroke-linecap="round" class="Down"></path><path d="M1010 428L1009 286" stroke-width="10" stroke="url(&quot;#SvgjsLinearGradient1007&quot;)" stroke-linecap="round" class="Down"></path><path d="M798 82L797 243" stroke-width="10" stroke="url(&quot;#SvgjsLinearGradient1008&quot;)" stroke-linecap="round" class="Up"></path><path d="M743 37L742 318" stroke-width="8" stroke="url(&quot;#SvgjsLinearGradient1007&quot;)" stroke-linecap="round" class="Down"></path><path d="M744 252L743 -57" stroke-width="6" stroke="url(&quot;#SvgjsLinearGradient1007&quot;)" stroke-linecap="round" class="Down"></path><path d="M382 205L381 -54" stroke-width="8" stroke="url(&quot;#SvgjsLinearGradient1007&quot;)" stroke-linecap="round" class="Down"></path><path d="M543 336L542 -21" stroke-width="8" stroke="url(&quot;#SvgjsLinearGradient1007&quot;)" stroke-linecap="round" class="Down"></path><path d="M893 40L892 -218" stroke-width="8" stroke="url(&quot;#SvgjsLinearGradient1007&quot;)" stroke-linecap="round" class="Down"></path><path d="M1169 391L1168 235" stroke-width="10" stroke="url(&quot;#SvgjsLinearGradient1008&quot;)" stroke-linecap="round" class="Up"></path><path d="M470 394L469 244" stroke-width="8" stroke="url(&quot;#SvgjsLinearGradient1007&quot;)" stroke-linecap="round" class="Down"></path><path d="M830 351L829 10" stroke-width="6" stroke="url(&quot;#SvgjsLinearGradient1007&quot;)" stroke-linecap="round" class="Down"></path><path d="M740 531L739 819" stroke-width="6" stroke="url(&quot;#SvgjsLinearGradient1008&quot;)" stroke-linecap="round" class="Up"></path><path d="M263 475L262 623" stroke-width="10" stroke="url(&quot;#SvgjsLinearGradient1008&quot;)" stroke-linecap="round" class="Up"></path><path d="M833 170L832 -148" stroke-width="8" stroke="url(&quot;#SvgjsLinearGradient1007&quot;)" stroke-linecap="round" class="Down"></path><path d="M545 194L544 355" stroke-width="10" stroke="url(&quot;#SvgjsLinearGradient1007&quot;)" stroke-linecap="round" class="Down"></path><path d="M648 151L647 425" stroke-width="8" stroke="url(&quot;#SvgjsLinearGradient1008&quot;)" stroke-linecap="round" class="Up"></path><path d="M765 112L764 -299" stroke-width="8" stroke="url(&quot;#SvgjsLinearGradient1007&quot;)" stroke-linecap="round" class="Down"></path><path d="M863 550L862 833" stroke-width="6" stroke="url(&quot;#SvgjsLinearGradient1008&quot;)" stroke-linecap="round" class="Up"></path><path d="M1164 297L1163 647" stroke-width="8" stroke="url(&quot;#SvgjsLinearGradient1007&quot;)" stroke-linecap="round" class="Down"></path><path d="M573 320L572 128" stroke-width="10" stroke="url(&quot;#SvgjsLinearGradient1008&quot;)" stroke-linecap="round" class="Up"></path></g><defs><mask id="SvgjsMask1006"><rect width="1440" height="560" fill="#ffffff"></rect></mask><linearGradient x1="0%" y1="0%" x2="0%" y2="100%" id="SvgjsLinearGradient1007"><stop stop-color="rgba(232, 230, 250, 0)" offset="0"></stop><stop stop-color="rgba(232, 230, 250, 1)" offset="1"></stop></linearGradient><linearGradient x1="0%" y1="100%" x2="0%" y2="0%" id="SvgjsLinearGradient1008"><stop stop-color="rgba(232, 230, 250, 0)" offset="0"></stop><stop stop-color="rgba(232, 230, 250, 1)" offset="1"></stop></linearGradient></defs></svg>