<svg id="visual" viewBox="0 0 900 600" width="900" height="600" xmlns="http://www.w3.org/2000/svg" xmlns:xlink="http://www.w3.org/1999/xlink" version="1.1"><rect x="0" y="0" width="900" height="600" fill="#F14E29"></rect><defs><linearGradient id="grad1_0" x1="33.3%" y1="0%" x2="100%" y2="100%"><stop offset="20%" stop-color="#cfc8f0" stop-opacity="1"></stop><stop offset="80%" stop-color="#cfc8f0" stop-opacity="1"></stop></linearGradient></defs><defs><linearGradient id="grad1_1" x1="33.3%" y1="0%" x2="100%" y2="100%"><stop offset="20%" stop-color="#cfc8f0" stop-opacity="1"></stop><stop offset="80%" stop-color="#f883bb" stop-opacity="1"></stop></linearGradient></defs><defs><linearGradient id="grad1_2" x1="33.3%" y1="0%" x2="100%" y2="100%"><stop offset="20%" stop-color="#f14e29" stop-opacity="1"></stop><stop offset="80%" stop-color="#f883bb" stop-opacity="1"></stop></linearGradient></defs><defs><linearGradient id="grad2_0" x1="0%" y1="0%" x2="66.7%" y2="100%"><stop offset="20%" stop-color="#cfc8f0" stop-opacity="1"></stop><stop offset="80%" stop-color="#cfc8f0" stop-opacity="1"></stop></linearGradient></defs><defs><linearGradient id="grad2_1" x1="0%" y1="0%" x2="66.7%" y2="100%"><stop offset="20%" stop-color="#f883bb" stop-opacity="1"></stop><stop offset="80%" stop-color="#cfc8f0" stop-opacity="1"></stop></linearGradient></defs><defs><linearGradient id="grad2_2" x1="0%" y1="0%" x2="66.7%" y2="100%"><stop offset="20%" stop-color="#f883bb" stop-opacity="1"></stop><stop offset="80%" stop-color="#f14e29" stop-opacity="1"></stop></linearGradient></defs><g transform="translate(900, 0)"><path d="M0 486.7C-60 475.5 -120 464.3 -184.1 444.4C-248.1 424.5 -316.2 396 -344.2 344.2C-372.1 292.4 -359.9 217.4 -376.9 156.1C-394 94.9 -440.4 47.4 -486.7 0L0 0Z" fill="#ff5e7b"></path><path d="M0 324.5C-40 317 -80 309.5 -122.7 296.3C-165.4 283 -210.8 264 -229.5 229.5C-248.1 194.9 -239.9 144.9 -251.3 104.1C-262.7 63.3 -293.6 31.6 -324.5 0L0 0Z" fill="#dfa9e3"></path><path d="M0 162.2C-20 158.5 -40 154.8 -61.4 148.1C-82.7 141.5 -105.4 132 -114.7 114.7C-124 97.5 -120 72.5 -125.6 52C-131.3 31.6 -146.8 15.8 -162.2 0L0 0Z" fill="#cfc8f0"></path></g><g transform="translate(0, 600)"><path d="M0 -486.7C48.1 -443.9 96.3 -401.1 159.2 -384.3C222.1 -367.5 299.9 -376.7 344.2 -344.2C388.5 -311.6 399.4 -237.3 417.6 -173C435.8 -108.6 461.3 -54.3 486.7 0L0 0Z" fill="#ff5e7b"></path><path d="M0 -324.5C32.1 -296 64.2 -267.4 106.1 -256.2C148.1 -245 199.9 -251.2 229.5 -229.5C259 -207.7 266.3 -158.2 278.4 -115.3C290.5 -72.4 307.5 -36.2 324.5 0L0 0Z" fill="#dfa9e3"></path><path d="M0 -162.2C16 -148 32.1 -133.7 53.1 -128.1C74 -122.5 100 -125.6 114.7 -114.7C129.5 -103.9 133.1 -79.1 139.2 -57.7C145.3 -36.2 153.8 -18.1 162.2 0L0 0Z" fill="#cfc8f0"></path></g></svg>